# xmcd
#
# Track frame offsets:
#	150
#	16867
#	33326
#	49504
#	71135
#	85294
#	97813
#	113729
#	136399
#	154314
#	166830
#	184845
#	203326
#	221691
#	236325
#	253931
#	273524
#	290815
#
# Disc length: 4064 seconds
#
# Revision: 1
# Processed by: cddbd v1.4PL0 Copyright (c) Steve Scherf et al.
# Submitted via: audiograbber 1.81.03
#
DISCID=fb0fde12
DTITLE=Various Artist - Hott Country 65
DYEAR=2001
DGENRE=Country
TTITLE0=Faith Hill - There You'll Be
TTITLE1=Pam Tillis - Thunder and Roses
TTITLE2=Mary Chapin Carpenter - Simple Life
TTITLE3=Kasey Chambers - Don't Talk Back
TTITLE4=Dwight Yoakam - I Want You to Want Me
TTITLE5=Toby Keith - I'm Just Talkin' About Tonight
TTITLE6=Trick Pony - On A Night l;ike This
TTITLE7=Tractors - Can't Get  Nowhere
TTITLE8=Meredith Edwards - The Bird Song
TTITLE9=Kortney Kayle - Unbroken By You
TTITLE10=Adam Gregory - Big Star
TTITLE11=Tyler England - I'd Rather Have Nothing
TTITLE12=Warren Brothers - Where Does It Hurt
TTITLE13=Andy Griggs - How Cool Is That
TTITLE14=Chely Wright - Never Love You Enough
TTITLE15=Steve Wariner - Turn In The Road
TTITLE16=Blake Shelton - Austin
TTITLE17=Billy Gilman - She's My Girl
EXTD=
EXTT0=
EXTT1=
EXTT2=
EXTT3=
EXTT4=
EXTT5=
EXTT6=
EXTT7=
EXTT8=
EXTT9=
EXTT10=
EXTT11=
EXTT12=
EXTT13=
EXTT14=
EXTT15=
EXTT16=
EXTT17=
PLAYORDER=
